<!--?xml version="1.0" standalone="no"?-->              <svg id="sw-js-blob-svg" viewBox="0 0 100 100" xmlns="http://www.w3.org/2000/svg">                    <defs>                         <linearGradient id="sw-gradient" x1="0" x2="1" y1="1" y2="0">                            <stop id="stop1" stop-color="rgba(249.433, 83.874, 165.644, 1)" offset="0%"></stop>                            <stop id="stop2" stop-color="rgba(103.718, 0, 51.227, 1)" offset="100%"></stop>                        </linearGradient>                    </defs>                <path fill="url(#sw-gradient)" d="M7.7,-6.7C13.4,-8.4,23.7,-11.9,29,-10.3C34.4,-8.7,34.8,-1.8,31,2.4C27.2,6.6,19.2,8.1,13.5,8.1C7.9,8,4.7,6.4,2.3,6.5C-0.1,6.6,-1.5,8.4,-4.5,10C-7.5,11.5,-12,12.9,-14.8,11.7C-17.5,10.5,-18.6,6.6,-21.2,1.8C-23.8,-3,-27.9,-8.8,-26.3,-11.8C-24.6,-14.9,-17.3,-15.2,-12,-13.6C-6.6,-12,-3.3,-8.6,-1.1,-6.8C1,-5.1,2.1,-4.9,7.7,-6.7Z" width="100%" height="100%" transform="translate(50 50)" stroke-width="0" style="transition: 0.3s;"></path>              </svg>