<svg width="689" height="196" viewBox="0 0 689 196" fill="none" xmlns="http://www.w3.org/2000/svg">
<path d="M338.583 0H340.837V2.22708H342.9V0H345.154V6.74167H342.9V4.48542H340.837V6.74167H338.585V0H338.583Z" fill="white"/>
<path d="M348.117 2.23542H346.133V0H352.356V2.23542H350.371V6.74167H348.117V2.23542Z" fill="white"/>
<path d="M353.344 0H355.694L357.14 2.36875L358.583 0H360.933V6.74167H358.69V3.4L357.14 5.79792H357.1L355.548 3.40208V6.74167H353.344V0Z" fill="white"/>
<path d="M362.054 0H364.31V4.51458H367.477V6.74375H362.054V0Z" fill="white"/>
<path fill-rule="evenodd" clip-rule="evenodd" d="M338.512 45.9834L334.25 9.82715H371.75L367.485 45.9792L352.979 50.0001L338.512 45.9834ZM347.131 26.1917L346.727 21.6501H363.696L364.092 17.2167H341.883L343.079 30.6271H358.448L357.933 36.3771L352.988 37.7146H352.983L348.046 36.3813L347.729 32.8459H343.275L343.896 39.8084L352.979 42.3292L362.077 39.8084L363.185 27.3834L363.294 26.1938H347.131V26.1917Z" fill="white"/>
<path d="M30 88V85H33V88H30Z" fill="white"/>
<path fill-rule="evenodd" clip-rule="evenodd" d="M22.5 65.2631L42 76.6391V96.3611L22.5 107.74L3 96.3611V76.6391L22.5 65.2601V65.2631ZM18.996 76.0001C16.3449 76.0001 13.8024 77.0533 11.9278 78.9279C10.0531 80.8025 9 83.345 9 85.9961V87.0041C9.0004 88.7075 9.43608 90.3825 10.2657 91.8702C11.0953 93.3579 12.2913 94.6089 13.7402 95.5045C15.1891 96.4001 16.8429 96.9106 18.5445 96.9876C20.2461 97.0645 21.9392 96.7053 23.463 95.9441L24.672 95.3441L23.328 92.6591L22.122 93.2591C21.056 93.7925 19.8713 94.0445 18.6805 93.9912C17.4897 93.938 16.3323 93.5812 15.3182 92.9548C14.304 92.3284 13.4668 91.4532 12.8861 90.4122C12.3053 89.3713 12.0003 88.1991 12 87.0071V85.9991C12.0001 84.8069 12.3049 83.6346 12.8855 82.5933C13.466 81.5519 14.303 80.6763 15.317 80.0493C16.3311 79.4224 17.4885 79.065 18.6795 79.0111C19.8704 78.9571 21.0554 79.2084 22.122 79.7411L23.328 80.3441L24.672 77.6621L23.463 77.0591C22.0754 76.3639 20.545 76.0013 18.993 76.0001H18.996ZM27 79.0001V82.0001H24V85.0001H27V88.0001H24V91.0001H27V94.0001H30V91.0001H33V94.0001H36V91.0001H39V88.0001H36V85.0001H39V82.0001H36V79.0001H33V82.0001H30V79.0001H27Z" fill="white"/>
<path d="M107 118.458C92.9812 118.458 82 124.406 82 132C82 139.594 92.9812 145.542 107 145.542C121.019 145.542 132 139.594 132 132C132 124.406 121.019 118.458 107 118.458ZM104.404 122.625H107.133L106.267 126.792H108.704C110.25 126.792 111.287 127.008 111.879 127.548C112.456 128.081 112.631 128.956 112.4 130.148L111.317 135.125H108.542L109.54 130.523C109.66 129.892 109.612 129.452 109.4 129.221C109.19 128.99 108.725 128.875 108.029 128.875H105.844L104.525 135.125H101.792L104.404 122.625ZM92.4167 126.792H97.9708C100.619 126.792 102.223 128.567 101.596 131.215C100.867 134.292 98.9167 135.125 95.325 135.125H93.6083L93.0646 138.25H90.3042L92.4167 126.792ZM114.292 126.792H119.846C122.494 126.792 124.098 128.567 123.471 131.215C122.742 134.292 120.79 135.125 117.2 135.125H115.483L114.94 138.25H112.179L114.292 126.792ZM94.7812 128.875L93.9958 133.042H95.7771C97.3187 133.042 98.7521 132.867 98.9917 130.567C99.0812 129.677 98.7104 128.875 96.9292 128.875H94.7812ZM116.656 128.875L115.871 133.042H117.652C119.194 133.042 120.627 132.867 120.867 130.567C120.956 129.677 120.587 128.875 118.804 128.875H116.656Z" fill="white"/>
<path d="M402.629 67H408V69.2458H404.875V71.4917H408V73.7375H402.629V67Z" fill="white"/>
<path d="M409.073 67H414.446V68.9542H411.321V69.3438H414.446V73.8354H409.073V71.7854H412.198V71.3938H409.073V67Z" fill="white"/>
<path d="M415.521 67H420.89V68.9542H417.765V69.3438H420.89V73.8354H415.521V71.7854H418.646V71.3938H415.521V67Z" fill="white"/>
<path fill-rule="evenodd" clip-rule="evenodd" d="M411.981 117L397.515 112.983L393.25 76.8271H430.75L426.487 112.979L411.981 117ZM401.681 93.1938L402.079 97.6271H417.448L416.933 103.377L411.988 104.715H411.983L407.046 103.381L406.729 99.8459H402.277L402.898 106.808L411.981 109.329L421.079 106.808L422.187 94.3834L422.296 93.1938L423.096 84.2167H400.883L401.287 88.6521H418.237L417.833 93.1938H401.681Z" fill="white"/>
<path d="M284.812 57.8125V92.1875H319.188V57.8125H284.812ZM287.938 60.9375H316.062V89.0625H287.938V60.9375ZM308.631 73.4375C306.405 73.4375 304.966 74.8625 304.966 76.75C304.966 78.7969 306.169 79.7766 307.978 80.5469L308.603 80.8172C309.748 81.3219 310.43 81.6156 310.43 82.4766C310.43 83.2031 309.762 83.725 308.723 83.725C307.492 83.725 306.792 83.0719 306.258 82.1953L304.211 83.3672C304.936 84.8219 306.45 85.9375 308.781 85.9375C311.156 85.9375 312.938 84.7062 312.938 82.45C312.938 80.3406 311.734 79.4047 309.595 78.5L308.973 78.2313C307.891 77.7563 307.43 77.4453 307.43 76.7031C307.43 76.0938 307.889 75.6187 308.633 75.6187C309.359 75.6187 309.817 75.9312 310.248 76.7031L312.211 75.4422C311.38 73.9891 310.234 73.4375 308.633 73.4375H308.631ZM299.491 73.5875V82.1234C299.491 83.3703 298.956 83.6937 298.139 83.6937C297.28 83.6937 296.908 83.1016 296.522 82.4031L294.475 83.6375C295.069 84.8984 296.239 85.9375 298.244 85.9375C300.469 85.9375 302 84.75 302 82.15V73.5875H299.492H299.491Z" fill="white"/>
<path d="M348.648 168.461L347.005 170.561C346.771 170.854 346.49 171 346.164 171C345.838 171 345.558 170.854 345.323 170.561L344.033 168.949V186.625C344.033 189.229 343.296 191.443 341.823 193.266C340.349 195.089 338.583 196 336.523 196H331.516C329.43 196 327.657 195.089 326.197 193.266C324.737 191.443 324.007 189.229 324.007 186.625H329.013C329.013 187.504 329.254 188.244 329.737 188.847C330.219 189.449 330.812 189.75 331.516 189.75H336.523C337.201 189.75 337.787 189.449 338.283 188.847C338.778 188.244 339.026 187.504 339.026 186.625V168.949L337.735 170.561C337.501 170.854 337.22 171 336.894 171C336.568 171 336.288 170.854 336.053 170.561L334.372 168.461C334.137 168.168 334.02 167.818 334.02 167.411C334.02 167.004 334.137 166.654 334.372 166.361L340.317 158.939C340.551 158.646 340.956 158.5 341.529 158.5C342.077 158.5 342.481 158.663 342.742 158.988L348.687 166.361C348.896 166.654 349 167.004 349 167.411C349 167.818 348.883 168.168 348.648 168.461ZM336.523 152.25H331.516C330.812 152.25 330.219 152.559 329.737 153.178C329.254 153.796 329.013 154.529 329.013 155.375V173.051L330.265 171.439C330.499 171.146 330.78 171 331.106 171C331.432 171 331.712 171.146 331.947 171.439L333.628 173.539C333.863 173.832 333.98 174.182 333.98 174.589C333.98 174.996 333.863 175.346 333.628 175.639L327.722 183.061C327.488 183.354 327.083 183.5 326.51 183.5C325.936 183.5 325.519 183.337 325.258 183.012L319.352 175.639C319.117 175.346 319 174.996 319 174.589C319 174.182 319.117 173.832 319.352 173.539L321.034 171.439C321.269 171.146 321.549 171 321.875 171C322.201 171 322.481 171.146 322.716 171.439L324.007 173.051V155.375C324.007 152.771 324.737 150.557 326.197 148.734C327.657 146.911 329.43 146 331.516 146H336.523C338.583 146 340.349 146.911 341.823 148.734C343.296 150.557 344.033 152.771 344.033 155.375H339.026C339.026 154.529 338.778 153.796 338.283 153.178C337.787 152.559 337.201 152.25 336.523 152.25Z" fill="white"/>
<g clip-path="url(#clip0)">
<path d="M320.604 146.498C321.232 146.498 321.715 146.843 321.715 147.221C321.715 147.599 321.232 147.943 320.604 147.943C319.975 147.943 319.492 147.599 319.492 147.221C319.492 146.843 319.976 146.498 320.604 146.498ZM320.604 146.418C319.956 146.418 319.43 146.777 319.43 147.221C319.43 147.664 319.956 148.023 320.604 148.023C321.252 148.023 321.777 147.664 321.777 147.221C321.777 146.777 321.252 146.418 320.604 146.418ZM320.23 147.156C320.201 147.349 320.099 147.329 319.973 147.329L320.024 146.993C320.163 146.993 320.257 146.973 320.23 147.156ZM319.787 147.67H319.922L319.954 147.457C320.105 147.457 320.198 147.471 320.285 147.366C320.38 147.251 320.405 147.048 320.337 146.946C320.301 146.892 320.244 146.866 320.167 146.866H319.907L319.787 147.67ZM320.468 146.652H320.602L320.57 146.865C320.686 146.865 320.793 146.855 320.845 146.917C320.899 146.981 320.873 147.064 320.814 147.456H320.678C320.735 147.077 320.746 147.046 320.725 147.017C320.705 146.989 320.66 146.995 320.551 146.995L320.482 147.456H320.348L320.468 146.652ZM321.282 147.156C321.253 147.352 321.147 147.329 321.025 147.329L321.075 146.993C321.215 146.993 321.309 146.973 321.282 147.156ZM320.839 147.67H320.974L321.006 147.457C321.164 147.457 321.252 147.469 321.337 147.366C321.432 147.251 321.457 147.048 321.389 146.946C321.354 146.892 321.296 146.866 321.219 146.866H320.959L320.839 147.67Z" fill="white"/>
</g>
<g clip-path="url(#clip1)">
<path d="M231.164 123.746C226.752 130.35 227.302 138.942 230.672 145.96C230.752 146.127 230.832 146.294 230.918 146.46C230.97 146.565 231.02 146.673 231.078 146.775C231.108 146.837 231.144 146.898 231.176 146.956L231.352 147.29L231.672 147.862C231.732 147.967 231.792 148.073 231.856 148.177C231.977 148.381 232.101 148.584 232.228 148.785C232.28 148.873 232.332 148.952 232.388 149.04C232.564 149.312 232.744 149.585 232.928 149.852L232.944 149.873C232.972 149.917 233.006 149.958 233.036 150.002C233.196 150.231 233.356 150.46 233.528 150.685L233.714 150.931C233.863 151.127 234.015 151.322 234.17 151.515L234.344 151.731C234.55 151.985 234.762 152.231 234.984 152.485L234.996 152.498L235.02 152.525C235.232 152.765 235.448 153 235.66 153.233L235.866 153.45C236.104 153.7 236.347 153.944 236.594 154.183C236.826 154.412 237.062 154.635 237.3 154.85C237.304 154.854 237.306 154.858 237.312 154.86L237.436 154.969C237.649 155.159 237.863 155.347 238.076 155.533L238.342 155.754C238.518 155.901 238.696 156.047 238.876 156.19L239.162 156.417C239.36 156.569 239.56 156.719 239.762 156.862L239.982 157.029L240.042 157.075C240.234 157.212 240.43 157.346 240.624 157.477C240.708 157.535 240.784 157.596 240.876 157.644C241.176 157.84 241.48 158.037 241.788 158.225L242.04 158.373C242.266 158.51 242.492 158.644 242.724 158.773C242.848 158.844 242.976 158.91 243.102 158.977C243.262 159.067 243.422 159.156 243.592 159.242L243.706 159.298L243.906 159.4C244.162 159.528 244.421 159.653 244.682 159.775L244.842 159.852C245.141 159.988 245.443 160.119 245.748 160.246L245.968 160.335C246.25 160.448 246.536 160.56 246.822 160.669L246.93 160.706C247.25 160.821 247.57 160.927 247.89 161.031L248.12 161.102C248.376 161.198 248.704 161.298 249.042 161.377L249.104 161.39C270.438 165.442 276.636 148.035 276.636 148.035C271.432 155.098 262.192 156.962 253.436 154.887C253.104 154.808 252.784 154.702 252.458 154.602L252.214 154.525C251.894 154.424 251.581 154.317 251.274 154.206L251.144 154.158C250.866 154.056 250.59 153.949 250.316 153.837L250.084 153.742C249.784 153.619 249.484 153.487 249.188 153.354L249.008 153.271C248.754 153.15 248.502 153.031 248.252 152.906L248.034 152.796C247.838 152.695 247.643 152.592 247.45 152.485C247.32 152.415 247.188 152.348 247.06 152.273C246.824 152.142 246.592 152.002 246.36 151.862L246.124 151.725C245.816 151.537 245.512 151.34 245.212 151.144C245.128 151.09 245.052 151.031 244.966 150.977C244.748 150.831 244.53 150.681 244.316 150.527C244.246 150.479 244.176 150.423 244.106 150.373C243.899 150.222 243.695 150.067 243.492 149.91L243.22 149.696C243.034 149.548 242.848 149.4 242.666 149.244L242.42 149.037C242.188 148.837 241.958 148.64 241.73 148.433L241.654 148.367C241.41 148.142 241.174 147.912 240.93 147.679L240.726 147.475C240.549 147.3 240.375 147.123 240.206 146.944L240.002 146.731C239.789 146.499 239.575 146.265 239.362 146.027L239.33 145.992C239.11 145.739 238.894 145.483 238.682 145.223L238.516 145.01C238.356 144.815 238.2 144.615 238.05 144.41C237.991 144.338 237.934 144.265 237.878 144.19C237.694 143.942 237.514 143.69 237.338 143.444C232.478 136.54 230.732 127.015 234.618 119.194L231.164 123.746Z" fill="white"/>
<path d="M244.858 118.179C243.28 120.74 242.446 123.721 242.454 126.765C242.45 129.472 243.109 132.135 244.37 134.502L244.33 134.421C244.8 135.373 245.268 136.177 245.784 136.942L245.74 136.875C246.228 137.681 246.77 138.381 247.38 139.008L247.382 139.01C247.612 139.273 247.852 139.531 248.098 139.783L248.286 139.979C248.524 140.219 248.766 140.456 249.018 140.685C249.028 140.694 249.038 140.706 249.048 140.713C249.324 140.967 249.612 141.213 249.902 141.448L250.096 141.606C250.388 141.84 250.684 142.069 250.988 142.285L251.014 142.306C251.148 142.402 251.286 142.494 251.422 142.585C251.488 142.631 251.55 142.677 251.616 142.719C251.834 142.865 252.054 143.006 252.278 143.142L252.37 143.198C252.564 143.315 252.758 143.427 252.956 143.531C253.024 143.571 253.094 143.606 253.164 143.644L253.574 143.865L253.634 143.894C253.916 144.04 254.198 144.177 254.488 144.308C254.55 144.338 254.612 144.363 254.676 144.39C254.906 144.492 255.142 144.592 255.376 144.685L255.676 144.8C255.888 144.881 256.104 144.958 256.316 145.033L256.608 145.129C256.86 145.229 257.17 145.325 257.49 145.4L257.538 145.408C274.01 148.252 277.814 135.04 277.814 135.04C274.386 140.181 267.746 142.635 260.664 140.721C260.256 140.609 259.852 140.484 259.452 140.344C259.232 140.271 259.016 140.19 258.8 140.108L258.506 139.996C258.271 139.901 258.037 139.802 257.804 139.7C257.74 139.671 257.676 139.646 257.616 139.617C257.326 139.486 257.039 139.347 256.756 139.202C256.61 139.127 256.468 139.048 256.326 138.973L256.078 138.84C255.894 138.735 255.712 138.628 255.532 138.519L255.402 138.442C255.179 138.306 254.959 138.165 254.742 138.021L254.544 137.883C254.4 137.788 254.258 137.688 254.116 137.588C253.814 137.369 253.517 137.142 253.226 136.908L253.026 136.742C249.915 134.221 247.59 130.797 246.346 126.902L246.306 126.756C245.807 125.194 245.555 123.559 245.56 121.913C245.56 119.125 246.266 116.508 247.504 114.248L247.466 114.325L244.858 118.179Z" fill="white"/>
<path d="M256.376 114.021C255.322 115.659 254.762 117.588 254.768 119.56C254.768 121.05 255.08 122.463 255.64 123.731L255.616 123.669C256.324 125.33 257.342 126.828 258.613 128.075C259.883 129.321 261.379 130.291 263.014 130.927L263.104 130.958C263.24 131.013 263.374 131.058 263.514 131.106L263.694 131.165C263.85 131.225 264.046 131.285 264.246 131.333L264.28 131.34C273.374 133.173 275.842 126.477 276.5 125.494C274.338 128.735 270.708 129.513 266.252 128.388C265.887 128.291 265.527 128.175 265.174 128.04C264.711 127.871 264.257 127.674 263.816 127.45L263.894 127.485C263.092 127.082 262.33 126.596 261.622 126.033L261.654 126.058C257.666 122.906 255.19 116.892 257.792 111.998L256.376 114.021Z" fill="white"/>
</g>
<path d="M673.179 128.825C672.935 128.825 672.773 128.858 672.609 128.898V128.923H672.634C672.748 129.134 672.935 129.298 673.081 129.494C673.195 129.714 673.292 129.941 673.398 130.161L673.431 130.128C673.626 129.989 673.724 129.77 673.724 129.436C673.643 129.337 673.626 129.233 673.554 129.142C673.473 129.003 673.293 128.931 673.179 128.825ZM651.02 156.314H649.092C649.033 153.245 648.846 150.18 648.531 147.126H648.515L645.578 156.314H644.104L641.19 147.126H641.165C640.939 150.184 640.803 153.248 640.759 156.314H639.001C639.096 152.461 639.381 148.615 639.856 144.791H642.248L645.031 153.255H645.046L647.854 144.791H650.132C650.637 148.991 650.938 152.831 651.028 156.314H651.02ZM659.385 147.811C658.604 152.075 657.562 155.176 656.285 157.105C655.276 158.594 654.178 159.342 652.981 159.342C652.663 159.342 652.273 159.244 651.801 159.048V158.023C652.037 158.056 652.306 158.08 652.607 158.08C653.168 158.08 653.617 157.917 653.959 157.616C654.365 157.241 654.57 156.819 654.57 156.355C654.57 156.03 654.415 155.378 654.09 154.386L651.982 147.811H653.879L655.393 152.726C655.735 153.85 655.882 154.623 655.817 155.07C656.654 152.856 657.232 150.431 657.559 147.811H659.385ZM685.068 156.314H679.584V144.791H681.431V154.898H685.068V156.314ZM678.151 156.592L676.035 155.55C676.223 155.395 676.401 155.225 676.565 155.03C677.468 153.98 677.917 152.409 677.917 150.342C677.917 146.525 676.42 144.622 673.424 144.622C671.959 144.622 670.812 145.101 669.99 146.07C669.095 147.128 668.638 148.691 668.638 150.75C668.638 152.776 669.037 154.258 669.835 155.209C670.568 156.056 671.667 156.487 673.14 156.487C673.685 156.487 674.19 156.422 674.646 156.284L677.406 157.895L678.162 156.594L678.151 156.592ZM671.292 154.003C670.82 153.255 670.592 152.05 670.592 150.389C670.592 147.484 671.471 146.036 673.237 146.036C674.157 146.036 674.84 146.386 675.271 147.078C675.735 147.834 675.971 149.023 675.971 150.667C675.971 153.589 675.084 155.062 673.326 155.062C672.398 155.062 671.723 154.712 671.284 154.02L671.292 154.003ZM667.84 153.125C667.84 154.101 667.482 154.908 666.757 155.525C666.042 156.151 665.088 156.469 663.876 156.469C662.745 156.469 661.662 156.111 660.596 155.394L661.093 154.401C662.004 154.858 662.826 155.086 663.576 155.086C664.268 155.086 664.813 154.931 665.204 154.63C665.595 154.32 665.831 153.889 665.831 153.344C665.831 152.659 665.351 152.073 664.479 151.586C663.673 151.139 662.054 150.219 662.054 150.219C661.174 149.576 660.743 148.892 660.743 147.761C660.743 146.825 661.068 146.076 661.72 145.506C662.379 144.92 663.217 144.636 664.259 144.636C665.296 144.627 666.312 144.924 667.181 145.491L666.734 146.483C666.036 146.175 665.283 146.012 664.52 146.003C663.926 146.003 663.47 146.15 663.153 146.434C662.835 146.719 662.64 147.076 662.64 147.525C662.64 148.209 663.129 148.795 664.023 149.298C664.845 149.745 666.496 150.691 666.496 150.691C667.399 151.325 667.848 152.009 667.848 153.123L667.84 153.125ZM687.381 140.926C686.265 140.901 685.403 141.016 684.679 141.325C684.476 141.406 684.142 141.406 684.109 141.667C684.223 141.781 684.238 141.961 684.337 142.114C684.507 142.391 684.793 142.766 685.062 142.961C685.356 143.189 685.648 143.417 685.949 143.612C686.495 143.947 687.106 144.142 687.642 144.475C687.943 144.67 688.253 144.922 688.553 145.126C688.707 145.233 688.804 145.42 688.999 145.484V145.444C688.901 145.322 688.878 145.142 688.779 144.997C688.64 144.858 688.503 144.736 688.363 144.598C687.956 144.057 687.467 143.582 686.915 143.191C686.468 142.889 685.492 142.466 685.312 141.953L685.287 141.92C685.588 141.895 685.946 141.781 686.238 141.7C686.71 141.578 687.149 141.601 687.638 141.48C687.863 141.421 688.085 141.356 688.306 141.284V141.162C688.054 140.911 687.867 140.569 687.606 140.333C686.887 139.704 686.119 139.132 685.31 138.623C684.871 138.339 684.318 138.159 683.854 137.923C683.692 137.842 683.407 137.801 683.317 137.662C683.065 137.353 682.918 136.955 682.738 136.587C682.33 135.793 681.95 134.984 681.599 134.162C681.348 133.617 681.201 133.08 680.892 132.575C679.459 130.206 677.896 128.775 675.504 127.367C674.992 127.073 674.373 126.951 673.721 126.797C673.371 126.781 673.029 126.756 672.679 126.741C672.451 126.642 672.232 126.383 672.037 126.251C671.24 125.747 669.188 124.664 668.61 126.097C668.235 127.008 669.163 127.895 669.49 128.351C669.726 128.676 670.028 129.036 670.198 129.394C670.296 129.637 670.32 129.891 670.418 130.142C670.638 130.753 670.849 131.436 671.143 132.006C671.298 132.3 671.46 132.608 671.656 132.869C671.77 133.023 671.965 133.089 672.006 133.341C671.81 133.625 671.795 134.041 671.688 134.383C671.184 135.961 671.379 137.906 672.087 139.07C672.315 139.42 672.843 140.186 673.553 139.892C674.179 139.641 674.042 138.85 674.22 138.15C674.26 137.98 674.235 137.873 674.318 137.759V137.792C674.521 138.183 674.717 138.558 674.896 138.948C675.32 139.633 676.076 140.341 676.703 140.812C677.037 141.064 677.296 141.497 677.712 141.65V141.609H677.679C677.59 141.487 677.476 141.43 677.362 141.333C677.098 141.071 676.853 140.791 676.629 140.495C676.051 139.714 675.531 138.851 675.074 137.964C674.855 137.525 674.654 137.078 674.473 136.622C674.392 136.459 674.392 136.206 674.253 136.125C674.042 136.426 673.732 136.686 673.585 137.069C673.317 137.662 673.292 138.403 673.187 139.169C673.138 139.184 673.162 139.169 673.139 139.201C672.692 139.087 672.537 138.631 672.373 138.241C671.949 137.248 671.884 135.661 672.243 134.522C672.342 134.228 672.756 133.309 672.593 133.033C672.504 132.764 672.228 132.609 672.081 132.398C671.893 132.137 671.706 131.805 671.576 131.511C671.242 130.73 671.079 129.867 670.713 129.086C670.551 128.728 670.257 128.353 670.021 128.02C669.753 127.645 669.46 127.378 669.256 126.937C669.182 126.783 669.085 126.531 669.199 126.367C669.224 126.253 669.281 126.212 669.395 126.18C669.574 126.025 670.095 126.22 670.274 126.309C670.787 126.512 671.218 126.708 671.649 127.001C671.845 127.141 672.056 127.4 672.309 127.473H672.603C673.049 127.572 673.546 127.498 673.962 127.628C674.703 127.864 675.37 128.206 675.971 128.58C677.811 129.761 679.307 131.405 680.309 133.348C680.479 133.666 680.553 133.959 680.707 134.292C680.992 134.984 681.359 135.675 681.651 136.334C681.943 136.994 682.221 137.661 682.643 138.206C682.854 138.5 683.685 138.653 684.067 138.8C684.343 138.93 684.774 139.044 685.018 139.191C685.498 139.484 685.97 139.817 686.418 140.142C686.646 140.297 687.338 140.647 687.379 140.923L687.381 140.926Z" fill="white"/>
<g clip-path="url(#clip2)">
<path d="M546.842 72.219C546.842 72.219 546.675 72.4835 546.833 72.8752C546.929 73.1169 547.221 73.4085 547.542 73.7169C547.542 73.7169 550.906 77.0002 551.319 77.4752C553.183 79.6273 553.994 81.746 554.069 84.669C554.115 86.544 553.754 88.194 552.875 90.1127C551.3 93.5481 547.979 97.3377 542.854 101.55L543.604 101.3C544.09 100.94 544.746 100.552 546.296 99.7044C549.865 97.7544 553.871 95.9585 558.794 94.1085C565.875 91.4481 577.523 88.3252 584.152 87.3106L584.842 87.2044L584.738 87.0377C584.129 86.096 583.717 85.5148 583.217 84.8981C581.765 83.1002 580.004 81.6335 577.848 80.4273C574.885 78.7669 571.042 77.4773 566.181 76.5106C564.664 76.2253 563.142 75.9649 561.617 75.7294C558.888 75.3108 556.162 74.8664 553.442 74.396C552.556 74.2398 551.233 74.019 550.356 73.8294C549.68 73.6857 549.012 73.5062 548.354 73.2919C547.796 73.0731 547.01 72.8606 546.842 72.219ZM548.792 74.1127C548.798 74.1085 548.923 74.1481 549.077 74.2002C549.36 74.296 549.735 74.4085 550.173 74.5315C550.477 74.6148 550.813 74.7065 551.171 74.796C551.625 74.9127 552.002 75.0127 552.006 75.019C552.056 75.0752 552.821 77.5148 553.081 78.4502C553.181 78.8085 553.256 79.1065 553.25 79.1127C553.177 79.0224 553.115 78.9246 553.063 78.821C552.179 77.2669 550.777 75.6856 549.158 74.4127C549.032 74.3172 548.91 74.2172 548.792 74.1127ZM552.521 75.1419C552.658 75.155 552.794 75.1786 552.927 75.2127C554.217 75.496 556.521 75.9419 558 76.1919C558.248 76.2335 558.45 76.2752 558.45 76.2898C558.39 76.344 558.321 76.3876 558.246 76.419C557.998 76.544 556.992 77.146 556.656 77.371C555.89 77.8742 555.172 78.4468 554.51 79.0815C554.377 79.2183 554.24 79.3516 554.1 79.4815C554.064 79.3887 554.036 79.2932 554.015 79.196C553.661 77.9271 553.208 76.6879 552.66 75.4898C552.605 75.3777 552.556 75.263 552.513 75.146C552.513 75.144 552.513 75.1419 552.521 75.1419ZM559.077 76.3877C559.119 76.4023 559.202 76.6585 559.346 77.2294C559.678 78.5754 559.786 79.967 559.665 81.3481L559.64 81.4273L559.25 81.3023C558.171 80.9642 557.086 80.6447 555.996 80.344C555.602 80.2431 555.213 80.125 554.829 79.9898C554.829 79.944 555.765 79.0085 556.167 78.6523C556.935 77.9731 559.004 76.3648 559.077 76.3877ZM559.598 76.4627C559.621 76.4419 562.731 76.9794 564.144 77.2502C565.198 77.4523 566.721 77.771 566.813 77.8106C566.858 77.8273 566.7 77.9148 566.194 78.144C564.194 79.044 562.71 79.8523 561.235 80.8377C560.848 81.096 560.525 81.3085 560.519 81.3085C560.51 81.3085 560.506 81.0919 560.506 80.8294C560.506 79.3919 560.217 77.9398 559.692 76.7127C559.653 76.6325 559.621 76.5488 559.598 76.4627ZM567.64 78.0544C567.663 78.0773 567.56 78.6919 567.473 79.0544C567.198 80.1794 566.469 81.8544 565.569 83.4273C565.474 83.6047 565.368 83.7759 565.252 83.9398C565.094 83.8726 564.941 83.7925 564.796 83.7002C563.917 83.1856 562.921 82.7002 561.827 82.2481C561.631 82.1712 561.438 82.0878 561.248 81.9981C561.198 81.9523 563.629 80.3419 564.919 79.569C565.95 78.9502 567.61 78.0252 567.64 78.0544ZM568.215 78.144C568.283 78.144 569.663 78.519 570.375 78.7335C572.152 79.2648 574.202 80.0127 575.531 80.6169L576.083 80.8669L575.694 80.9565C572.442 81.7065 569.652 82.5669 566.969 83.6565C566.746 83.7481 566.552 83.8231 566.538 83.8231C566.575 83.6893 566.628 83.5601 566.694 83.4377C567.502 81.7231 568.023 79.9231 568.158 78.396C568.171 78.2565 568.196 78.144 568.215 78.144ZM554.506 81.294C554.527 81.2731 555.577 81.519 556.15 81.6794C557.01 81.921 558.842 82.5335 558.842 82.5815C558.842 82.5898 558.64 82.7669 558.394 82.9731C557.33 83.8676 556.299 84.8008 555.304 85.771C555.098 85.9774 554.884 86.1755 554.663 86.3648C554.648 86.3648 554.642 86.3169 554.65 86.2606C554.823 84.9877 554.785 83.3544 554.546 81.6919C554.522 81.5611 554.508 81.4288 554.504 81.296L554.506 81.294ZM576.61 81.3148C576.625 81.3315 576.123 82.1169 575.81 82.5648C575.352 83.219 574.692 84.0773 573.183 85.9752L571.196 88.4794C571.014 88.7148 570.827 88.9461 570.635 89.1731C570.629 89.1731 570.531 89.0356 570.421 88.869C569.569 87.5982 568.538 86.4578 567.358 85.4835C567.174 85.3288 566.986 85.1774 566.796 85.0294C566.74 84.9916 566.688 84.9476 566.642 84.8981C566.642 84.8773 567.927 84.3273 568.908 83.9273C570.809 83.1632 572.74 82.4751 574.696 81.8648C575.617 81.5835 576.596 81.3023 576.61 81.3148ZM577.19 81.4669C577.341 81.5182 577.486 81.5882 577.621 81.6752C579.458 82.7276 581.157 84.004 582.679 85.4752C583.083 85.871 584.069 86.8981 584.054 86.9065L583.298 86.9669C580.11 87.2065 576.035 87.8835 572.11 88.8273C571.844 88.8898 571.615 88.944 571.598 88.944C571.583 88.944 571.875 88.6523 572.246 88.294C574.552 86.0794 575.602 84.6815 576.84 82.1815C577.023 81.8106 577.179 81.4877 577.185 81.469H577.19V81.4669ZM560.34 83.196C560.446 83.2169 561.429 83.6752 562.171 84.046C562.848 84.3856 563.875 84.9335 563.927 84.9815C563.933 84.9877 563.573 85.1752 563.123 85.4002C561.788 86.0631 560.483 86.7839 559.21 87.5606C558.846 87.7835 558.544 87.9648 558.533 87.9648C558.502 87.9648 558.513 87.9377 558.717 87.5669C559.42 86.2547 559.938 84.8509 560.254 83.396C560.283 83.2669 560.317 83.1877 560.34 83.194V83.196ZM559.35 83.371C559.371 83.3919 559.117 84.3294 558.954 84.8294C558.514 86.1448 557.931 87.408 557.215 88.596L557.027 88.9023L556.604 88.4919C556.193 88.0725 555.717 87.7209 555.196 87.4502C555.067 87.3919 554.944 87.3207 554.829 87.2377C554.829 87.1752 556.121 86.0023 557.117 85.1585C557.831 84.5544 559.333 83.3523 559.35 83.371ZM565.367 85.846L565.735 86.0856C566.583 86.6356 567.585 87.3752 568.35 88.0106C568.779 88.369 569.61 89.1148 569.781 89.294L569.873 89.3919L569.26 89.5627C566.129 90.4169 563.035 91.4067 559.99 92.5294C559.77 92.6137 559.547 92.6915 559.323 92.7627C559.279 92.7627 559.235 92.8023 560.017 92.0835C562.017 90.244 563.781 88.2169 565.1 86.246L565.367 85.846ZM563.785 86.2419C563.804 86.2606 562.76 87.721 562.142 88.546C561.4 89.5315 560.079 91.1815 559.171 92.2544C558.939 92.5372 558.699 92.813 558.45 93.0815C558.429 93.0877 558.419 92.9773 558.417 92.8044C558.417 91.8877 558.183 90.9085 557.775 90.0794C557.602 89.7294 557.573 89.646 557.608 89.6127C557.75 89.4835 559.956 88.2252 561.346 87.4815C562.302 86.969 563.769 86.2231 563.785 86.2419ZM554.223 88.5856C554.828 88.8757 555.396 89.238 555.915 89.6648C555.931 89.6752 555.733 89.8377 555.477 90.0231C554.758 90.5419 553.665 91.3648 553.033 91.869C552.367 92.4002 552.344 92.4169 552.419 92.3002C552.919 91.5356 553.169 91.1044 553.431 90.5502C553.667 90.0585 553.898 89.4752 554.065 88.9669C554.099 88.8326 554.153 88.7041 554.225 88.5856H554.223ZM556.771 90.5856C556.806 90.5794 556.854 90.644 557.06 90.9502C557.492 91.596 557.823 92.4544 557.908 93.1544L557.925 93.3065L556.89 93.7065C555.299 94.3178 553.725 94.9708 552.169 95.6648C551.846 95.8148 551.277 96.0856 550.904 96.2731C550.531 96.4606 550.227 96.6065 550.227 96.5981C550.227 96.5898 550.46 96.4127 550.748 96.2065C553.013 94.5606 554.967 92.7606 556.44 90.9585C556.596 90.7669 556.74 90.6002 556.758 90.5877C556.762 90.5855 556.766 90.5841 556.771 90.5835V90.5856ZM555.596 90.8773C555.627 90.9065 554.76 91.8856 554.177 92.4815C552.768 93.9295 551.19 95.2032 549.477 96.2752C549.252 96.419 549.048 96.546 549.019 96.5627C548.971 96.5919 549.035 96.5169 549.823 95.6585C550.319 95.119 550.698 94.671 551.131 94.1106C551.331 93.8216 551.588 93.5763 551.885 93.3898C553.004 92.5815 555.567 90.846 555.596 90.8752V90.8773ZM557.677 67.0002C557.51 66.9794 554.821 67.9481 553.094 68.6481C550.754 69.6002 548.935 70.5106 547.815 71.2981C547.398 71.5898 546.873 72.1169 546.798 72.319C546.768 72.4011 546.754 72.4879 546.754 72.5752L547.771 73.5335L550.183 74.3044L555.931 75.3335L562.5 76.4627L562.567 75.9002L562.508 75.8898L561.644 75.7523L561.467 75.444C560.574 73.8687 559.756 72.2524 559.015 70.6002C558.582 69.6073 558.213 68.5879 557.91 67.5481C557.769 67.0419 557.754 67.0106 557.677 67.0002ZM557.55 67.3877H557.56C557.567 67.394 557.596 67.6065 557.627 67.8565C557.756 68.9148 557.994 69.9398 558.365 71.044C558.644 71.8773 558.648 71.8294 558.315 71.7356C557.544 71.521 554.081 70.9273 551.577 70.5794C551.328 70.5477 551.08 70.5108 550.833 70.469C550.802 70.4377 552.64 69.4752 553.454 69.094C554.498 68.6106 557.344 67.4273 557.55 67.3877ZM550.254 70.7794L550.548 70.8794C552.156 71.4252 556.185 72.196 558.413 72.3794C558.663 72.4002 558.875 72.4231 558.881 72.4294C558.888 72.4356 558.673 72.5502 558.406 72.6835C557.333 73.221 556.15 73.8773 555.331 74.3898C555.092 74.5398 554.873 74.6606 554.842 74.6585C554.723 74.6419 554.605 74.6231 554.488 74.6023L554.188 74.5544L553.427 73.8148C552.092 72.5231 551.05 71.5231 550.646 71.1481L550.254 70.7794ZM549.956 71.0169L551.021 72.346C551.608 73.0752 552.196 73.8023 552.325 73.9585C552.456 74.1148 552.556 74.246 552.55 74.2502C552.521 74.2731 551.008 73.9794 550.206 73.794C549.642 73.674 549.083 73.5266 548.533 73.3523L548.117 73.219L548.119 73.1169C548.125 72.6065 548.769 71.8523 549.86 71.0835L549.956 71.0169ZM559.023 72.8273C559.054 72.8294 559.09 72.894 559.183 73.1002C559.442 73.6669 560.246 75.2002 560.44 75.496C560.502 75.594 560.606 75.6002 559.538 75.4273C556.975 75.0148 556.144 74.8752 556.144 74.8585C556.196 74.8133 556.254 74.7754 556.317 74.746C557.134 74.2874 557.906 73.7523 558.623 73.1481L558.988 72.8419C559 72.8315 559.013 72.8252 559.023 72.8273ZM568 90.344L557.983 93.6106L549.275 97.4565L546.838 98.1023C545.546 99.3235 544.206 100.492 542.821 101.606C542.101 102.202 541.437 102.861 540.835 103.575C540.144 104.438 539.602 105.354 539.369 106.061C538.952 107.331 539.154 108.619 539.963 109.806C540.994 111.323 543.046 112.865 545.431 113.915C546.65 114.448 548.702 115.14 550.244 115.527C552.813 116.177 557.773 116.881 560.506 116.986C561.06 117.006 561.798 117.006 561.833 116.981C561.892 116.942 562.319 116.138 562.813 115.127C564.492 111.698 565.706 108.481 566.36 105.736C566.756 104.071 567.065 101.854 567.265 99.2252C567.326 97.883 567.337 96.539 567.298 95.196C567.246 94.0045 567.119 92.8174 566.917 91.6419C566.89 91.5399 566.882 91.4342 566.892 91.3294C566.921 91.3085 567.015 91.2773 568.246 90.919L568 90.344ZM565.708 91.6877C565.802 91.6877 566.042 94.0085 566.106 95.4794C566.119 95.794 566.117 95.994 566.098 95.994C566.04 95.994 564.817 95.2752 563.948 94.7315C563.128 94.215 562.321 93.6788 561.527 93.1231C561.454 93.0648 561.463 93.0627 562.081 92.8502C563.133 92.4877 565.631 91.6877 565.71 91.6877H565.708ZM560.608 93.3606C560.671 93.3606 560.848 93.4585 561.265 93.719C562.827 94.6981 564.944 95.8752 565.848 96.271C566.131 96.396 566.163 96.346 565.515 96.7856C564.135 97.7231 562.419 98.644 560.313 99.5815C560.085 99.6855 559.855 99.7841 559.623 99.8773C559.638 99.7357 559.668 99.596 559.713 99.4606C560.223 97.5752 560.51 95.669 560.519 94.1398C560.523 93.3856 560.523 93.3815 560.596 93.3627H560.608V93.3606ZM559.558 93.7627C559.602 93.8085 559.571 95.5002 559.517 95.9627C559.358 97.2648 559.066 98.5472 558.646 99.7898C558.617 99.8252 557.581 98.8148 557.238 98.4148C556.693 97.7975 556.225 97.1169 555.844 96.3877C555.673 96.0502 555.398 95.3794 555.423 95.3606C555.54 95.2773 559.529 93.7356 559.558 93.7627ZM554.61 95.7127C554.619 95.7127 554.627 95.7148 554.631 95.721C554.677 95.8087 554.716 95.9 554.748 95.994C555.069 96.7939 555.491 97.5499 556.002 98.244C556.619 99.0608 557.33 99.8021 558.121 100.452C558.169 100.494 558.183 100.486 556.95 100.952C555.371 101.548 553.778 102.103 552.171 102.619C551.49 102.84 550.913 103.025 550.89 103.036C550.821 103.059 550.842 103.017 551.042 102.706C551.931 101.319 553.277 98.6023 554.031 96.6815C554.16 96.3481 554.285 96.0148 554.308 95.9398C554.34 95.8315 554.373 95.794 554.475 95.7481C554.517 95.7262 554.563 95.714 554.61 95.7127ZM553.094 96.3377C553.115 96.3565 552.731 97.1669 552.352 97.9023C551.548 99.4568 550.677 100.976 549.742 102.454L549.363 103.054C549.325 103.111 549.308 103.092 549.192 102.859C548.919 102.303 548.723 101.713 548.608 101.104C548.501 100.355 548.515 99.5931 548.65 98.8481C548.748 98.3752 548.744 98.3856 548.967 98.2731C549.929 97.7794 553.063 96.3106 553.094 96.3377ZM566.152 96.869V97.1898C566.131 99.2779 565.953 101.361 565.621 103.423C564.247 103.027 562.921 102.48 561.667 101.794C560.929 101.39 559.865 100.738 559.896 100.706C559.902 100.698 560.217 100.534 560.592 100.338C562.079 99.5669 563.498 98.7335 564.733 97.9085C565.196 97.6002 565.89 97.0981 566.044 96.9627L566.152 96.869ZM547.377 99.1044C547.408 99.1044 547.4 99.1627 547.352 99.4398C547.311 99.7091 547.282 99.9803 547.267 100.252C547.204 101.361 547.385 102.177 547.933 103.294C548.088 103.606 548.208 103.865 548.202 103.869C548.146 103.917 543.14 105.381 541.565 105.813L540.658 106.063C540.602 106.079 540.598 106.067 540.617 105.938C540.79 104.827 541.638 103.371 542.821 102.146C543.608 101.334 544.238 100.85 545.31 100.24C545.992 99.8487 546.681 99.4701 547.377 99.1044ZM559.188 101.219C559.192 101.215 559.377 101.313 559.598 101.442C561.217 102.377 563.473 103.254 565.396 103.694L565.571 103.736L565.331 103.867C564.327 104.425 561.017 105.802 557.635 107.069C557.279 107.202 556.922 107.337 556.567 107.473C556.513 107.5 556.455 107.519 556.396 107.529C556.396 107.521 556.535 107.254 556.706 106.934C557.656 105.159 558.602 103.002 559.09 101.506C559.138 101.354 559.181 101.225 559.188 101.219ZM557.983 101.615C557.947 101.735 557.903 101.852 557.852 101.967C557.084 103.782 556.206 105.549 555.225 107.259C555.058 107.564 554.883 107.865 554.7 108.161C554.69 108.161 554.463 108.023 554.192 107.859C552.588 106.875 551.167 105.667 550.233 104.49L550.1 104.323L550.792 104.134C553.059 103.527 555.28 102.759 557.438 101.836C557.733 101.711 557.979 101.609 557.983 101.615ZM565.463 104.225C565.465 104.225 565.467 104.227 565.467 104.231C565.467 104.398 565.085 105.956 564.767 107.086C564.5 108.029 564.275 108.769 563.86 110.079C563.755 110.433 563.638 110.783 563.51 111.129C561.372 110.764 559.277 110.177 557.26 109.377C556.808 109.2 556.364 109.004 555.929 108.788C555.917 108.773 556.373 108.559 556.942 108.309C560.39 106.806 563.96 105.094 565.181 104.359C565.267 104.298 565.362 104.253 565.463 104.225ZM548.198 104.815C548.217 104.834 547.252 106.213 545.906 108.098L544.683 109.813C544.481 110.102 544.173 110.559 543.998 110.829L543.679 111.321L543.342 111.036C542.836 110.592 542.365 110.112 541.931 109.598C541.281 108.788 540.842 107.936 540.667 107.152C540.588 106.79 540.583 106.606 540.66 106.584C542.002 106.26 543.345 105.944 544.69 105.636L547.398 105C547.833 104.896 548.194 104.813 548.198 104.815ZM549.167 105.186L549.41 105.459C550.428 106.614 551.629 107.595 552.965 108.363C553.11 108.435 553.247 108.525 553.371 108.629C550.373 109.716 547.366 110.779 544.35 111.817C544.298 111.786 544.248 111.753 544.2 111.717L544.06 111.617L544.279 111.3C544.988 110.273 545.879 109.144 547.831 106.796L549.167 105.186ZM555.208 109.504C555.215 109.498 555.552 109.617 555.963 109.771C556.948 110.14 557.721 110.379 558.769 110.642C560.054 110.965 561.915 111.288 563.015 111.379C563.181 111.392 563.269 111.413 563.244 111.429C563.192 111.463 562.077 111.834 561.258 112.092C558.048 113.068 554.828 114.015 551.6 114.931C551.527 114.946 551.273 114.879 551.273 114.848C551.273 114.829 551.454 114.6 551.675 114.336C552.777 113.017 553.803 111.637 554.75 110.202C554.902 109.969 555.055 109.736 555.208 109.504ZM553.871 109.542C553.881 109.552 553.344 110.413 552.4 111.9C552 112.527 551.548 113.244 551.394 113.488C551.238 113.734 551.01 114.109 550.89 114.321L550.667 114.706L550.554 114.677C550.283 114.604 548.369 113.927 547.865 113.727C547.263 113.489 546.674 113.219 546.102 112.917C545.5 112.592 544.738 112.109 544.796 112.09L547.098 111.461C550.415 110.556 552.25 110.038 553.452 109.661C553.679 109.592 553.867 109.538 553.869 109.542H553.871ZM563.294 111.752H563.306C563.338 111.831 562.108 115.231 561.66 116.311C561.558 116.552 561.523 116.613 561.469 116.609C560.472 116.483 559.477 116.344 558.483 116.192C556.596 115.904 553.435 115.352 552.638 115.171L552.452 115.129L553.583 114.875C556.008 114.329 557.173 114.036 558.354 113.673C559.877 113.205 561.365 112.631 562.808 111.956C562.966 111.88 563.128 111.811 563.294 111.752Z" fill="white"/>
</g>
<defs>
<clipPath id="clip0">
<rect width="2.34681" height="2.44141" fill="white" transform="translate(319.43 146)"/>
</clipPath>
<clipPath id="clip1">
<rect width="50" height="50" fill="white" transform="translate(228 112)"/>
</clipPath>
<clipPath id="clip2">
<rect width="50" height="50" fill="white" transform="translate(537 67)"/>
</clipPath>
</defs>
</svg>
